<svg width="343" height="75" viewBox="0 0 343 75" fill="none" xmlns="http://www.w3.org/2000/svg">
<path d="M147.456 38.6043C146.329 38.6043 145.409 37.6841 145.409 36.5568C145.409 35.418 146.329 34.5092 147.456 34.5092C148.583 34.5092 149.504 35.4295 149.504 36.5568C149.515 37.6841 148.595 38.6043 147.456 38.6043ZM147.456 32.5537C145.248 32.5537 143.453 34.3482 143.453 36.5568C143.453 38.7654 145.248 40.5599 147.456 40.5599C149.665 40.5599 151.459 38.7654 151.459 36.5568C151.459 34.3367 149.665 32.5537 147.456 32.5537Z" fill="#E2E4E9"/>
<path d="M129.074 38.6043C127.947 38.6043 127.027 37.6841 127.027 36.5568C127.027 35.418 127.947 34.5092 129.074 34.5092C130.202 34.5092 131.122 35.4295 131.122 36.5568C131.122 37.6841 130.202 38.6043 129.074 38.6043ZM129.074 32.5537C126.866 32.5537 125.071 34.3482 125.071 36.5568C125.071 38.7654 126.866 40.5599 129.074 40.5599C131.283 40.5599 133.077 38.7654 133.077 36.5568C133.066 34.3367 131.283 32.5537 129.074 32.5537Z" fill="#E2E4E9"/>
<path d="M143.2 38.7194C142.947 38.7884 142.556 38.869 142.418 38.869C141.728 38.869 141.59 38.6274 141.59 37.9832V34.2792H143.223V32.7378H141.59V30.5522H139.749L139.358 32.7378H138.081H137.978C136.931 32.7378 136.137 33.382 135.631 34.3828L134.998 32.7378H133.676V40.4104H135.93V37.0745C135.93 35.395 136.931 34.3137 138.104 34.2792H139.335V38.0983C139.335 39.8927 140.255 40.5599 141.751 40.5599C142.521 40.5599 143.12 40.3989 143.476 40.2838L143.2 38.7194Z" fill="#E2E4E9"/>
<path d="M154.197 35.1535V40.4104H152V32.7263H153.334L153.783 33.8996" fill="#E2E4E9"/>
<path d="M153.771 33.9111C154.439 33.1404 155.347 32.5537 156.417 32.5537C158.246 32.5537 158.994 34.0146 158.994 35.3605V40.4103H156.739V35.4295C156.739 34.7738 156.187 34.4172 155.6 34.4172C154.968 34.4172 154.565 34.7853 154.208 35.1649" fill="#E2E4E9"/>
<path d="M116.317 29.9541H118.837L122.287 36.5224V29.9541H124.37V40.4104H122.092L118.399 33.175V40.4104H116.317V29.9541Z" fill="#E2E4E9"/>
<path d="M158.994 32.7378V32.8873H159.201V33.612H159.373V32.8873H159.592V32.7378H158.994Z" fill="#E2E4E9"/>
<path d="M160.248 32.7378L160.098 33.3129L159.937 32.7378H159.707V33.612H159.857V32.9218L160.041 33.612H160.156L160.34 32.9218V33.612H160.478V32.7378H160.248Z" fill="#E2E4E9"/>
<path d="M119.044 46.5758C119.044 45.9087 118.837 45.1264 118.077 45.1264C117.721 45.1264 117.399 45.2875 117.111 45.5866V47.7837C117.376 48.0712 117.617 48.2208 117.985 48.2208C118.664 48.2093 119.044 47.6226 119.044 46.5758ZM116.962 48.2093L116.801 48.7039H116.386V42.9639H117.111V45.0574C117.353 44.7929 117.744 44.5168 118.238 44.5168C119.331 44.5168 119.814 45.5981 119.814 46.5758C119.814 47.8872 119.136 48.7729 118.123 48.7729C117.594 48.7729 117.238 48.5544 116.962 48.2093Z" fill="#A0A0A0"/>
<path d="M120.274 44.5974H121.011C121.011 44.5974 122.046 48.0598 122.046 48.0713L123.012 44.5974H123.725L122.345 49.0146C122.103 49.7738 121.701 50.1994 120.907 50.1994C120.746 50.1994 120.574 50.1764 120.413 50.1304L120.505 49.6128C120.608 49.6243 120.712 49.6588 120.85 49.6588C121.275 49.6588 121.597 49.4632 121.758 48.9571L120.274 44.5974Z" fill="#A0A0A0"/>
<path d="M125.876 48.1058L126.233 47.5996C126.59 47.8642 127.096 48.1518 127.855 48.1518C128.603 48.1518 129.04 47.7952 129.04 47.174C129.04 46.4838 128.511 46.2653 127.751 46.0007C126.935 45.7131 126.187 45.345 126.187 44.2982C126.187 43.3665 126.923 42.8604 127.889 42.8604C128.58 42.8604 128.982 42.9754 129.431 43.2284L129.132 43.7806C128.775 43.585 128.396 43.47 127.878 43.47C127.268 43.47 126.854 43.7116 126.854 44.2867C126.854 44.8964 127.257 45.0919 128.097 45.391C128.902 45.6671 129.753 46.0237 129.753 47.151C129.753 48.1518 129.04 48.7499 127.866 48.7499C126.912 48.7729 126.256 48.4278 125.876 48.1058Z" fill="#A0A0A0"/>
<path d="M130.167 44.5974H130.903C130.903 44.5974 131.939 48.0598 131.939 48.0713L132.905 44.5974H133.618L132.238 49.0146C131.996 49.7738 131.593 50.1994 130.8 50.1994C130.639 50.1994 130.466 50.1764 130.305 50.1304L130.397 49.6128C130.501 49.6243 130.604 49.6588 130.742 49.6588C131.168 49.6588 131.49 49.4632 131.651 48.9571L130.167 44.5974Z" fill="#A0A0A0"/>
<path d="M138.714 44.5168C139.542 44.5168 139.761 45.2185 139.761 45.8972V48.704H139.036V45.8972C139.036 45.4946 138.967 45.1265 138.472 45.1265C138.139 45.1265 137.782 45.3336 137.426 45.6902V48.704H136.701V45.8972C136.701 45.4946 136.632 45.1265 136.137 45.1265C135.792 45.1265 135.424 45.3681 135.09 45.7017V48.704H134.366V44.5974H134.791L134.975 45.2645C135.355 44.8504 135.815 44.5168 136.367 44.5168C136.919 44.5168 137.149 44.8159 137.31 45.23C137.69 44.8044 138.185 44.5168 138.714 44.5168Z" fill="#A0A0A0"/>
<path d="M143.108 46.5874C142.291 46.7369 141.762 46.9095 141.555 47.1626C141.452 47.2891 141.429 47.4041 141.429 47.5767C141.429 47.9793 141.624 48.2093 142.061 48.2093C142.475 48.2093 142.843 48.0023 143.108 47.8067V46.5874ZM143.108 45.9317C143.108 45.3796 142.935 45.1035 142.337 45.1035C141.923 45.1035 141.555 45.2645 141.164 45.4601L140.899 44.977C141.325 44.7124 141.785 44.5168 142.383 44.5168C143.407 44.5168 143.81 45.069 143.81 45.9892V48.7155H143.396L143.212 48.2208C142.924 48.5084 142.475 48.773 141.946 48.773C141.222 48.773 140.692 48.3244 140.692 47.6342C140.692 47.1856 140.865 46.8635 141.245 46.6334C141.613 46.4034 142.268 46.2423 143.108 46.1158V45.9317Z" fill="#A0A0A0"/>
<path d="M145.018 44.5974H145.443L145.627 45.2761C146.007 44.8504 146.49 44.5168 147.1 44.5168C147.985 44.5168 148.215 45.2185 148.215 45.8972V48.704H147.491V45.8972C147.491 45.4946 147.387 45.1265 146.858 45.1265C146.478 45.1265 146.076 45.3681 145.742 45.7132V48.704H145.018V44.5974Z" fill="#A0A0A0"/>
<path d="M148.986 45.1035V44.5974H149.619L149.803 43.4241H150.32V44.5974H151.241V45.1035H150.32V47.6342C150.32 48.0138 150.389 48.2209 150.781 48.2209C150.942 48.2209 151.068 48.1863 151.252 48.1403L151.356 48.635C151.195 48.704 150.942 48.7615 150.689 48.7615C149.941 48.7615 149.607 48.4049 149.607 47.6687V45.092H148.986V45.1035Z" fill="#A0A0A0"/>
<path d="M154.462 46.3688C154.439 45.5061 154.151 45.0575 153.576 45.0575C153.058 45.0575 152.713 45.4601 152.656 46.3688H154.462ZM153.679 48.1978C154.151 48.1978 154.45 48.0138 154.795 47.7952L155.094 48.2323C154.692 48.5544 154.324 48.773 153.61 48.773C152.552 48.773 151.873 47.9563 151.873 46.6564C151.873 45.3911 152.529 44.5168 153.553 44.5168C154.611 44.5168 155.175 45.3106 155.175 46.6794V46.852H152.621C152.679 47.7262 152.989 48.1978 153.679 48.1978Z" fill="#A0A0A0"/>
<path d="M155.842 46.6794C155.842 45.6211 156.314 44.5168 157.579 44.5168C158.108 44.5168 158.499 44.6434 158.867 44.954L158.557 45.4371C158.292 45.2415 157.982 45.1035 157.59 45.1035C156.728 45.1035 156.601 45.9892 156.601 46.6909C156.601 47.3696 156.751 48.1978 157.613 48.1978C158.028 48.1978 158.315 48.0368 158.591 47.8067L158.936 48.2323C158.637 48.5314 158.223 48.7845 157.579 48.7845C156.325 48.773 155.842 47.7032 155.842 46.6794Z" fill="#A0A0A0"/>
<path d="M100.731 31.1961C98.5452 31.1961 96.4861 32.0474 94.9332 33.6003C93.3803 35.1532 92.529 37.2122 92.529 39.3978C92.529 41.5834 93.3803 43.6425 94.9332 45.1954C96.4861 46.7483 98.5452 47.5995 100.731 47.5995C102.916 47.5995 104.975 46.7483 106.528 45.1954C108.07 43.6425 108.921 41.5834 108.932 39.3978C108.932 37.2122 108.081 35.1532 106.528 33.6003C104.975 32.0589 102.916 31.1961 100.731 31.1961ZM100.731 51.384C94.128 51.384 88.7445 46.0006 88.7445 39.3978C88.7445 32.7836 94.128 27.4116 100.731 27.4116C107.333 27.4116 112.717 32.7836 112.717 39.3978C112.717 46.0006 107.333 51.384 100.731 51.384Z" fill="#FFC20E"/>
<path d="M114.718 25.5598H113.787V26.4916H114.718V25.5598Z" fill="#FFC20E"/>
<path d="M114.718 23.6963H113.787V24.628H114.718V23.6963Z" fill="#FFC20E"/>
<path d="M112.038 26.4915H111.164V27.4002H112.038V26.4915Z" fill="white"/>
<path d="M110.313 28.2861H109.427V29.1604H110.313V28.2861Z" fill="#E2E4E9"/>
<path d="M113.005 27.4004H112.027V28.2746H113.005V27.4004Z" fill="#E2E4E9"/>
<path d="M109.427 27.4463H108.553V28.286H109.427V27.4463Z" fill="#E2E4E9"/>
<path d="M112.038 28.2861H111.164V29.1604H112.038V28.2861Z" fill="#E2E4E9"/>
<path d="M113.787 24.6394H112.866V25.5712H113.787V24.6394Z" fill="#E2E4E9"/>
<path d="M112.866 25.5598H111.164V26.4916H112.866V25.5598Z" fill="#E2E4E9"/>
<path d="M111.164 26.4915H110.313V28.2859H111.164V26.4915Z" fill="#E2E4E9"/>
<path d="M110.313 29.1602V30.0344H109.427V29.1602H107.966V29.7928H107.184V30.575H108.058V31.4493H107.184V30.575H106.252V31.9439H105.378V32.8181H104.791V33.6924H104.147C103.422 34.7621 101.628 38.098 101.076 39.4554C99.1088 36.7177 97.5789 35.6364 96.3826 35.2453C95.7384 35.0497 94.9562 35.7514 96.026 36.8672C98.4991 39.5934 99.2814 41.8365 100.029 43.6425C100.432 44.5858 102.215 44.7353 102.571 43.7691C103.33 41.733 104.435 39.4324 105.746 37.5574V36.5796H106.448V35.7054H107.184V34.6816H108.058V33.7039H107.172V32.8066H108.058V33.7039H108.921V32.8181H109.611V31.7483H110.393V31.0122H111.141V29.1602H110.313Z" fill="#E2E4E9"/>
<g clip-path="url(#clip0_70_41)">
<path d="M186.096 35.1452C186.096 34.5898 186.596 34.3762 187.424 34.3762C188.612 34.3762 190.112 34.7038 191.299 35.2876V31.941C190.002 31.471 188.721 31.2859 187.424 31.2859C184.252 31.2859 182.143 32.7954 182.143 35.3161C182.143 39.2467 188.08 38.6201 188.08 40.3148C188.08 40.9699 187.455 41.1835 186.58 41.1835C185.283 41.1835 183.627 40.6993 182.315 40.0442V43.4336C183.768 44.0033 185.237 44.2454 186.58 44.2454C189.83 44.2454 192.065 42.7785 192.065 40.2293C192.049 35.9855 186.096 36.7403 186.096 35.1452ZM196.658 28.4376L192.846 29.1782L192.83 40.5854C192.83 42.6931 194.565 44.2454 196.877 44.2454C198.158 44.2454 199.096 44.0317 199.612 43.7754V40.8844C199.112 41.0696 196.643 41.7247 196.643 39.617V34.5613H199.612V31.528H196.643L196.658 28.4376ZM204.471 32.5818L204.221 31.528H200.846V43.989H204.752V35.544C205.674 34.4474 207.237 34.6468 207.721 34.8034V31.528C207.221 31.3571 205.393 31.0438 204.471 32.5818ZM208.674 31.528H212.596V43.989H208.674V31.528ZM208.674 30.4456L212.596 29.6766V26.7856L208.674 27.5404V30.4456ZM220.752 31.2859C219.221 31.2859 218.237 31.941 217.69 32.3967L217.487 31.5137H214.049V48.119L217.955 47.3642L217.971 43.3339C218.533 43.7042 219.362 44.2311 220.737 44.2311C223.533 44.2311 226.08 42.1804 226.08 37.6659C226.065 33.536 223.487 31.2859 220.752 31.2859ZM219.815 41.0981C218.893 41.0981 218.346 40.799 217.971 40.4287L217.955 35.1452C218.362 34.7322 218.924 34.4474 219.815 34.4474C221.237 34.4474 222.221 35.9 222.221 37.7656C222.221 39.6739 221.252 41.0981 219.815 41.0981ZM238.393 37.8083C238.393 34.1626 236.455 31.2859 232.752 31.2859C229.033 31.2859 226.783 34.1626 226.783 37.7799C226.783 42.0665 229.44 44.2311 233.252 44.2311C235.112 44.2311 236.518 43.8466 237.58 43.3054V40.4572C236.518 40.9414 235.299 41.2405 233.752 41.2405C232.237 41.2405 230.893 40.7563 230.721 39.0758H238.362C238.362 38.8907 238.393 38.1501 238.393 37.8083ZM230.674 36.4554C230.674 34.8462 231.752 34.1768 232.737 34.1768C233.69 34.1768 234.705 34.8462 234.705 36.4554H230.674Z" fill="#6772E5"/>
</g>
<path fill-rule="evenodd" clip-rule="evenodd" d="M268.236 34.2886H273.778C276.753 34.2886 277.873 35.8595 277.7 38.1675C277.414 41.9778 275.205 44.0859 272.276 44.0859H270.797C270.395 44.0859 270.124 44.3634 270.016 45.1153L269.388 49.4866C269.346 49.77 269.203 49.9341 268.989 49.9565H265.507C265.179 49.9565 265.064 49.6954 265.149 49.13L267.272 35.1166C267.355 34.5556 267.65 34.2886 268.236 34.2886Z" fill="#009EE3"/>
<path fill-rule="evenodd" clip-rule="evenodd" d="M292.294 34.0283C294.164 34.0283 295.889 35.0861 295.653 37.7224C295.367 40.8555 293.757 42.5891 291.218 42.5966H289C288.681 42.5966 288.526 42.8681 288.443 43.4246L288.014 46.2698C287.95 46.6995 287.738 46.9113 287.426 46.9113H285.362C285.033 46.9113 284.919 46.692 284.992 46.2012L286.695 34.7982C286.78 34.2372 286.982 34.0283 287.349 34.0283H292.29H292.294ZM288.933 40.1334H290.613C291.665 40.0916 292.363 39.3322 292.433 37.9626C292.476 37.1167 291.928 36.5109 291.057 36.5154L289.475 36.5229L288.933 40.1334ZM301.264 46.0385C301.453 45.8595 301.645 45.767 301.617 45.9878L301.55 46.516C301.516 46.792 301.62 46.9382 301.866 46.9382H303.7C304.009 46.9382 304.159 46.8084 304.235 46.3101L305.365 38.913C305.422 38.5415 305.335 38.3595 305.065 38.3595H303.048C302.866 38.3595 302.778 38.4654 302.73 38.7548L302.656 39.2099C302.617 39.4471 302.513 39.4889 302.416 39.2502C302.074 38.4057 301.201 38.0268 299.984 38.0566C297.156 38.1178 295.249 40.3572 295.045 43.2277C294.887 45.4477 296.412 47.1918 298.423 47.1918C299.882 47.1918 300.535 46.7442 301.27 46.043L301.264 46.0385ZM299.728 44.9002C298.511 44.9002 297.662 43.8871 297.838 42.6458C298.014 41.4045 299.153 40.3915 300.37 40.3915C301.587 40.3915 302.436 41.4045 302.26 42.6458C302.084 43.8871 300.947 44.9002 299.728 44.9002ZM308.954 38.3356H307.094C306.711 38.3356 306.555 38.634 306.677 39.001L308.985 46.052L306.721 49.4074C306.531 49.6878 306.678 49.943 306.946 49.943H309.036C309.157 49.9577 309.281 49.9355 309.391 49.8792C309.501 49.8228 309.593 49.7347 309.656 49.6252L316.757 39.0025C316.976 38.6757 316.873 38.3326 316.514 38.3326H314.535C314.196 38.3326 314.061 38.4728 313.866 38.7668L310.905 43.2426L309.582 38.7563C309.505 38.4848 309.312 38.3356 308.955 38.3356H308.954Z" fill="#113984"/>
<path fill-rule="evenodd" clip-rule="evenodd" d="M324.143 34.0284C326.013 34.0284 327.738 35.0862 327.502 37.7225C327.216 40.8556 325.607 42.5893 323.068 42.5967H320.851C320.532 42.5967 320.377 42.8683 320.294 43.4248L319.865 46.2699C319.801 46.6996 319.589 46.9115 319.277 46.9115H317.213C316.884 46.9115 316.77 46.6922 316.843 46.2013L318.549 34.7952C318.634 34.2343 318.835 34.0254 319.203 34.0254H324.143V34.0284ZM320.782 40.1335H322.463C323.514 40.0917 324.212 39.3323 324.282 37.9627C324.325 37.1167 323.777 36.511 322.906 36.5155L321.324 36.5229L320.782 40.1335ZM333.114 46.0387C333.302 45.8597 333.494 45.7672 333.467 45.988L333.4 46.5161C333.365 46.7921 333.47 46.9383 333.716 46.9383H335.55C335.859 46.9383 336.009 46.8085 336.085 46.3102L337.215 38.9131C337.272 38.5416 337.184 38.3596 336.914 38.3596H334.9C334.718 38.3596 334.63 38.4655 334.583 38.7549L334.508 39.21C334.47 39.4472 334.365 39.489 334.268 39.2503C333.926 38.4058 333.053 38.0268 331.836 38.0567C329.008 38.1179 327.102 40.3573 326.897 43.2278C326.74 45.4479 328.264 47.192 330.276 47.192C331.735 47.192 332.387 46.7444 333.122 46.0432L333.114 46.0387ZM331.579 44.9003C330.361 44.9003 329.513 43.8873 329.689 42.646C329.865 41.4047 331.004 40.3916 332.221 40.3916C333.438 40.3916 334.286 41.4047 334.111 42.646C333.935 43.8873 332.796 44.9003 331.579 44.9003ZM340.037 46.9503H337.92C337.883 46.952 337.846 46.9452 337.812 46.9304C337.778 46.9156 337.748 46.8932 337.723 46.8646C337.698 46.8361 337.68 46.8023 337.669 46.7655C337.658 46.7287 337.656 46.6899 337.661 46.6519L339.52 34.3641C339.538 34.2802 339.583 34.2051 339.646 34.1509C339.71 34.0967 339.79 34.0667 339.872 34.0657H341.989C342.026 34.064 342.063 34.0707 342.097 34.0855C342.131 34.1003 342.161 34.1228 342.186 34.1513C342.211 34.1798 342.229 34.2137 342.24 34.2504C342.251 34.2872 342.253 34.326 342.248 34.3641L340.389 46.6519C340.371 46.7363 340.327 46.8121 340.263 46.8669C340.199 46.9216 340.119 46.9521 340.037 46.9533V46.9503Z" fill="#009EE3"/>
<path fill-rule="evenodd" clip-rule="evenodd" d="M264.771 29.4644H270.318C271.88 29.4644 273.734 29.5166 274.972 30.6579C275.801 31.4203 276.236 32.6333 276.135 33.9402C275.795 38.3579 273.262 40.8331 269.863 40.8331H267.128C266.662 40.8331 266.354 41.1554 266.223 42.0267L265.459 47.0994C265.409 47.4276 265.273 47.6215 265.03 47.6454H261.607C261.228 47.6454 261.093 47.347 261.192 46.6876L263.652 30.4282C263.751 29.7747 264.096 29.4644 264.771 29.4644Z" fill="#113984"/>
<path fill-rule="evenodd" clip-rule="evenodd" d="M266.302 41.5116L267.27 35.1157C267.355 34.5547 267.65 34.2861 268.236 34.2861H273.777C274.694 34.2861 275.437 34.4353 276.017 34.7113C275.461 38.6441 273.022 40.8283 269.829 40.8283H267.099C266.733 40.8298 266.464 41.0208 266.302 41.5116Z" fill="#172C70"/>
<g clip-path="url(#clip1_70_41)">
<rect y="25.4465" width="65.625" height="24.1071" rx="4" fill="#E2E8F0"/>
<path d="M0 29.4465C0 27.2374 1.79086 25.4465 4 25.4465H24.7642V49.5537H4C1.79086 49.5537 0 47.7628 0 45.5537V29.4465Z" fill="#2050E0"/>
<path d="M12.3821 29.0625L12.6629 29.9472H13.5717L12.8365 30.494L13.1173 31.3787L12.3821 30.8316L11.647 31.3787L11.9279 30.494L11.1924 29.9472H12.1012L12.3821 29.0625Z" fill="#F8D12E"/>
<path d="M12.3821 43.6213L12.6629 44.5063H13.5717L12.8365 45.053L13.1173 45.9375L12.3821 45.3909L11.647 45.9375L11.9279 45.053L11.1924 44.5063H12.1012L12.3821 43.6213Z" fill="#F8D12E"/>
<path d="M16.121 30.386L16.4016 31.2707H17.3106L16.5752 31.8177L16.8561 32.7022L16.121 32.1552L15.3856 32.7022L15.6665 31.8177L14.9313 31.2707H15.8403L16.121 30.386Z" fill="#F8D12E"/>
<path d="M19.1438 39.9106L19.4244 40.7956H20.3333L19.598 41.3424L19.879 42.2268L19.1438 41.6803L18.4084 42.2268L18.6893 41.3424L17.954 40.7956H18.8629L19.1438 39.9106Z" fill="#F8D12E"/>
<path d="M19.8599 36.342L20.1406 37.2267H21.0495L20.3143 37.7734L20.5951 38.6582L19.8599 38.1117L19.1247 38.6582L19.4057 37.7734L18.6702 37.2267H19.5789L19.8599 36.342Z" fill="#F8D12E"/>
<path d="M4.90442 36.342L5.18512 37.2267H6.0939L5.35857 37.7734L5.63961 38.6582L4.90442 38.1117L4.16904 38.6582L4.44993 37.7734L3.7146 37.2267H4.62353L4.90442 36.342Z" fill="#F8D12E"/>
<path d="M5.52353 39.9106L5.80423 40.7956H6.71301L5.97787 41.3424L6.25852 42.2268L5.52353 41.6803L4.7882 42.2268L5.06904 41.3424L4.33371 40.7956H5.24269L5.52353 39.9106Z" fill="#F8D12E"/>
<path d="M19.1438 32.6785L19.4244 33.5635H20.3333L19.598 34.1102L19.879 34.9946L19.1438 34.4481L18.4084 34.9946L18.6893 34.1102L17.954 33.5635H18.8629L19.1438 32.6785Z" fill="#F8D12E"/>
<path d="M5.83307 32.6785L6.11377 33.5635H7.02255L6.28741 34.1102L6.56806 34.9946L5.83307 34.4481L5.09774 34.9946L5.37858 34.1102L4.64325 33.5635H5.55223L5.83307 32.6785Z" fill="#F8D12E"/>
<path d="M16.8008 42.9595L17.0815 43.844H17.9904L17.2549 44.3911L17.536 45.2756L16.8008 44.729L16.0654 45.2756L16.3464 44.3911L15.6111 43.844H16.52L16.8008 42.9595Z" fill="#F8D12E"/>
<path d="M8.64317 30.386L8.92381 31.2707H9.83279L9.09746 31.8177L9.3785 32.7022L8.64317 32.1552L7.90798 32.7022L8.18882 31.8177L7.45349 31.2707H8.36228L8.64317 30.386Z" fill="#F8D12E"/>
<path d="M7.96326 42.9595L8.24408 43.8445H9.15298L8.41771 44.391L8.69853 45.2756L7.96326 44.7293L7.22813 45.2756L7.50895 44.391L6.77368 43.8445H7.68239L7.96326 42.9595Z" fill="#F8D12E"/>
<path fill-rule="evenodd" clip-rule="evenodd" d="M29.0979 34.8457C29.0979 36.5477 30.4371 37.6154 32.0823 37.6154C33.1239 37.6154 33.9258 37.206 34.521 36.5718V34.4764H31.8591V35.6244H33.1239V36.074C32.9007 36.2506 32.5122 36.3951 32.0823 36.3951C31.1812 36.3951 30.5446 35.7208 30.5446 34.8457C30.5446 33.9706 31.1812 33.2962 32.0823 33.2962C32.6031 33.2962 33.0247 33.5772 33.2479 33.9305L34.4384 33.3203C34.0333 32.654 33.2893 32.0759 32.0823 32.0759C30.4371 32.0759 29.0979 33.1437 29.0979 34.8457ZM35.356 37.5191V32.1642H37.6707C39.4068 32.1642 40.6551 33.1758 40.6551 34.8377C40.6551 36.4995 39.4068 37.5191 37.679 37.5191H35.356ZM36.7779 36.3149H37.6707C38.638 36.3149 39.2001 35.6325 39.2001 34.8377C39.2001 34.0107 38.6876 33.3685 37.679 33.3685H36.7779V36.3149ZM41.3661 37.5191V32.1642H44.1272C45.3673 32.1642 46.0452 32.9751 46.0452 33.9465C46.0452 34.9099 45.3673 35.7047 44.1272 35.7047H42.788V37.5191H41.3661ZM44.5985 33.9385C44.5985 33.5692 44.3174 33.3283 43.9371 33.3283H42.788V34.5326H43.9371C44.3174 34.5326 44.5985 34.2998 44.5985 33.9385ZM49.757 37.5191L48.8311 35.7047H48.1036V37.5191H46.6817V32.1642H49.4429C50.6664 32.1642 51.3608 32.951 51.3608 33.9465C51.3608 34.8778 50.7739 35.3756 50.2613 35.5522L51.3856 37.5191H49.757ZM49.9141 33.9305C49.9141 33.5612 49.6 33.3283 49.228 33.3283H48.1036V34.5326H49.228C49.6 34.5326 49.9141 34.2998 49.9141 33.9305Z" fill="#2B3945"/>
<path fill-rule="evenodd" clip-rule="evenodd" d="M14.0625 36.9797H14.3278C14.6208 36.9797 14.8585 37.219 14.8585 37.5139V39.6507C14.8585 39.9456 14.6208 40.1849 14.3278 40.1849H10.4363C10.1434 40.1849 9.90567 39.9456 9.90567 39.6507V37.5139C9.90567 37.219 10.1434 36.9797 10.4363 36.9797H10.7017V36.1784C10.7017 35.2458 11.4556 34.4868 12.3821 34.4868C13.3085 34.4868 14.0625 35.2458 14.0625 36.1784V36.9797ZM11.5861 36.1784V36.9797H13.1781V36.1784C13.1781 35.7366 12.821 35.3771 12.3821 35.3771C11.9432 35.3771 11.5861 35.7366 11.5861 36.1784Z" fill="white"/>
<path d="M32.2812 41.4251C32.2549 41.3423 32.2187 41.2661 32.1727 41.1965C32.1267 41.127 32.0675 41.0669 31.9952 41.0161C31.9229 40.9652 31.8374 40.9265 31.7388 40.8997C31.6434 40.8703 31.5317 40.8556 31.4035 40.8556C31.2161 40.8556 31.0533 40.8864 30.9153 40.9479C30.7805 41.0094 30.6703 41.0923 30.5849 41.1965C30.4994 41.2981 30.4353 41.4144 30.3926 41.5455C30.3531 41.6765 30.3334 41.8102 30.3334 41.9465C30.3334 42.0829 30.3531 42.2166 30.3926 42.3476C30.4353 42.4786 30.4994 42.5963 30.5849 42.7005C30.6703 42.8021 30.7805 42.8837 30.9153 42.9452C31.0533 43.0067 31.2161 43.0374 31.4035 43.0374C31.5415 43.0374 31.6632 43.0187 31.7684 42.9813C31.8736 42.9412 31.964 42.8877 32.0396 42.8209C32.1152 42.7513 32.1744 42.6711 32.2171 42.5802C32.2598 42.4893 32.2878 42.3917 32.3009 42.2874H32.9025C32.8894 42.4586 32.8434 42.615 32.7645 42.7567C32.6888 42.8984 32.5853 43.0214 32.4538 43.1257C32.3223 43.2273 32.1678 43.3062 31.9903 43.3623C31.8127 43.4185 31.6171 43.4465 31.4035 43.4465C31.1405 43.4465 30.9038 43.4078 30.6934 43.3302C30.4862 43.25 30.3104 43.1417 30.1657 43.0054C30.0211 42.869 29.9093 42.7099 29.8304 42.5281C29.7548 42.3463 29.717 42.1524 29.717 41.9465C29.717 41.7433 29.7548 41.5508 29.8304 41.369C29.9093 41.1872 30.0211 41.0281 30.1657 40.8917C30.3104 40.7554 30.4862 40.6471 30.6934 40.5669C30.9038 40.4866 31.1405 40.4465 31.4035 40.4465C31.6007 40.4465 31.7864 40.4693 31.9607 40.5147C32.1349 40.5575 32.2878 40.6217 32.4193 40.7072C32.5541 40.7901 32.6625 40.8917 32.7447 41.012C32.8269 41.1324 32.8779 41.2701 32.8976 41.4251H32.2812Z" fill="#2B3945"/>
<path d="M35.0855 40.8556C34.8981 40.8556 34.7354 40.8864 34.5973 40.9479C34.4625 41.0094 34.3524 41.0923 34.2669 41.1965C34.1814 41.2981 34.1173 41.4144 34.0746 41.5455C34.0351 41.6765 34.0154 41.8102 34.0154 41.9465C34.0154 42.0829 34.0351 42.2166 34.0746 42.3476C34.1173 42.4786 34.1814 42.5963 34.2669 42.7005C34.3524 42.8021 34.4625 42.8837 34.5973 42.9452C34.7354 43.0067 34.8981 43.0374 35.0855 43.0374C35.2729 43.0374 35.4339 43.0067 35.5687 42.9452C35.7068 42.8837 35.8186 42.8021 35.9041 42.7005C35.9895 42.5963 36.052 42.4786 36.0914 42.3476C36.1342 42.2166 36.1555 42.0829 36.1555 41.9465C36.1555 41.8102 36.1342 41.6765 36.0914 41.5455C36.052 41.4144 35.9895 41.2981 35.9041 41.1965C35.8186 41.0923 35.7068 41.0094 35.5687 40.9479C35.4339 40.8864 35.2729 40.8556 35.0855 40.8556ZM35.0855 40.4465C35.3485 40.4465 35.5835 40.4866 35.7906 40.5669C36.001 40.6471 36.1786 40.7554 36.3232 40.8917C36.4679 41.0281 36.578 41.1872 36.6536 41.369C36.7325 41.5508 36.7719 41.7433 36.7719 41.9465C36.7719 42.1524 36.7325 42.3463 36.6536 42.5281C36.578 42.7099 36.4679 42.869 36.3232 43.0054C36.1786 43.1417 36.001 43.25 35.7906 43.3302C35.5835 43.4078 35.3485 43.4465 35.0855 43.4465C34.8225 43.4465 34.5858 43.4078 34.3754 43.3302C34.1683 43.25 33.9924 43.1417 33.8477 43.0054C33.7031 42.869 33.5913 42.7099 33.5124 42.5281C33.4368 42.3463 33.399 42.1524 33.399 41.9465C33.399 41.7433 33.4368 41.5508 33.5124 41.369C33.5913 41.1872 33.7031 41.0281 33.8477 40.8917C33.9924 40.7554 34.1683 40.6471 34.3754 40.5669C34.5858 40.4866 34.8225 40.4465 35.0855 40.4465Z" fill="#2B3945"/>
<path d="M37.4464 40.5147H38.3143L39.2857 42.7567H39.2956L40.2424 40.5147H41.1004V43.3784H40.5136V41.1685H40.5037L39.5273 43.3784H39.0194L38.043 41.1685H38.0332V43.3784H37.4464V40.5147Z" fill="#2B3945"/>
<path d="M41.9617 40.5147H43.5151C43.7649 40.5147 43.9687 40.5441 44.1265 40.603C44.2843 40.6618 44.406 40.7353 44.4914 40.8235C44.5769 40.9118 44.6344 41.008 44.664 41.1123C44.6969 41.2166 44.7133 41.3128 44.7133 41.4011C44.7133 41.4893 44.6969 41.5856 44.664 41.6898C44.6344 41.7915 44.5769 41.8864 44.4914 41.9746C44.406 42.0628 44.2843 42.1364 44.1265 42.1952C43.9687 42.2513 43.7649 42.2794 43.5151 42.2794H42.5781V43.3784H41.9617V40.5147ZM42.5781 41.8703H43.4805C43.5496 41.8703 43.6203 41.8623 43.6926 41.8463C43.7649 41.8302 43.8306 41.8048 43.8898 41.7701C43.9523 41.7326 44.0016 41.6845 44.0378 41.6257C44.0772 41.5642 44.0969 41.488 44.0969 41.3971C44.0969 41.3035 44.0805 41.2259 44.0476 41.1644C44.0147 41.103 43.9704 41.0548 43.9145 41.0201C43.8586 40.9826 43.7945 40.9572 43.7222 40.9439C43.6498 40.9305 43.5726 40.9238 43.4904 40.9238H42.5781V41.8703Z" fill="#2B3945"/>
<path d="M45.3741 40.5147H45.9905V42.9452H47.7805V43.3784H45.3741V40.5147Z" fill="#2B3945"/>
<path d="M48.3289 40.5147H48.9453V43.3784H48.3289V40.5147Z" fill="#2B3945"/>
<path d="M50.7665 40.5147H51.4224L52.7785 43.3784H52.1177L51.7873 42.6203H50.3819L50.0515 43.3784H49.4154L50.7665 40.5147ZM50.5496 42.2393H51.6246L51.0969 41.008H51.0821L50.5496 42.2393Z" fill="#2B3945"/>
<path d="M53.2124 40.5147H53.8633L55.4709 42.6243H55.4807V40.5147H56.0675V43.3784H55.4166L53.814 41.2727H53.7992V43.3784H53.2124V40.5147Z" fill="#2B3945"/>
<path d="M56.5837 40.5147H59.434V40.9479H58.3146V43.3784H57.6982V40.9479H56.5837V40.5147Z" fill="#2B3945"/>
</g>
<defs>
<clipPath id="clip0_70_41">
<rect width="56.25" height="21.4286" fill="white" transform="translate(182.143 26.7856)"/>
</clipPath>
<clipPath id="clip1_70_41">
<rect width="65.625" height="24.1071" fill="white" transform="translate(0 25.4465)"/>
</clipPath>
</defs>
</svg>
