<svg width="36" height="36" viewBox="0 0 36 36" fill="none" xmlns="http://www.w3.org/2000/svg">
<circle cx="18" cy="18" r="18" fill="#651FFF"/>
<g clip-path="url(#clip0_1_422)">
<path d="M15 15.5C15 12.4625 17.4625 10 20.5 10C23.5375 10 26 12.4625 26 15.5C26 18.5375 23.5375 21 20.5 21C19.9156 21 19.35 20.9094 18.8219 20.7406L15.2594 17.1781C15.0906 16.65 15 16.0844 15 15.5ZM21.75 13C21.0594 13 20.5 13.5594 20.5 14.25C20.5 14.9406 21.0594 15.5 21.75 15.5C22.4406 15.5 23 14.9406 23 14.25C23 13.5594 22.4406 13 21.75 13Z" fill="white"/>
<path opacity="0.4" d="M15.2594 17.1781L18.8219 20.7406L17.7531 21.7531C17.6406 21.9219 17.45 22 17.25 22H16V23.25C16 23.6656 15.6656 24 15.25 24H14V25.25C14 25.6656 13.6656 26 13.25 26H10.75C10.3359 26 10 25.6656 10 25.25V22.75C10 22.55 10.079 22.3594 10.2197 22.2188L15.2594 17.1781Z" fill="white"/>
</g>
<defs>
<clipPath id="clip0_1_422">
<rect width="16" height="16" fill="white" transform="translate(10 10)"/>
</clipPath>
</defs>
</svg>
