<svg width="64" height="64" viewBox="0 0 64 64" fill="none" xmlns="http://www.w3.org/2000/svg">
<circle cx="32" cy="32" r="32" fill="#ECECFE"/>
<g clip-path="url(#clip0_160_129)">
<path d="M41.0035 35.4L36.6212 39.6543C36.4091 39.86 36.0982 39.9163 35.8306 39.798C35.5651 39.6812 35.3889 39.4125 35.3889 39.1125V36.8537H27.6111V39.1125C27.6111 39.4122 27.4375 39.6834 27.1698 39.8018C26.9021 39.9203 26.5912 39.864 26.3793 39.6583L21.9965 35.4C21.7046 35.1165 21.7046 34.5912 21.9965 34.3081L26.3776 30.0562C26.5903 29.85 26.9002 29.7937 27.1675 29.9125C27.4349 30.0312 27.6111 30.3 27.6111 30.6V32.8493H35.3889V30.6C35.3889 30.3004 35.5625 30.029 35.8302 29.9106C36.0979 29.7922 36.4088 29.8485 36.6207 30.0543L41.003 34.3087C41.2951 34.5937 41.2951 35.1187 41.0035 35.4Z" fill="#651FFF"/>
<path opacity="0.4" d="M19.8333 24C21.9832 24 23.7222 22.2113 23.7222 20C23.7222 17.7887 21.9844 16 19.8333 16C17.6823 16 15.9444 17.7887 15.9444 20C15.9444 22.2113 17.6841 24 19.8333 24ZM21.7778 26H17.8889C15.7409 26 14 27.7937 14 30V36C14 37.1044 14.8707 38 15.8898 38L15.9444 46C15.9444 47.1044 16.8152 48 17.8889 48H21.7778C22.8515 48 23.7222 47.1044 23.7222 46V39.9756L20.6622 37.005C20.0825 36.4937 19.8333 35.7625 19.8333 35.0063C19.8333 34.2463 20.1354 33.5169 20.6622 33.0056L25.0451 28.7506C25.1453 28.6534 25.2743 28.6062 25.386 28.527C24.7613 27.05 23.4184 26 21.7778 26ZM43.1667 24C45.3165 24 47.0556 22.2113 47.0556 20C47.0556 17.7887 45.3165 16 43.1667 16C41.0168 16 39.2778 17.7887 39.2778 20C39.2778 22.2113 41.0156 24 43.1667 24ZM45.1111 26H41.2222C39.6363 26 38.1852 27.0481 37.6141 28.5262C37.726 28.6057 37.8552 28.6529 37.9557 28.7505L42.338 33.0042C42.8628 33.5125 43.1667 34.2437 43.1667 35.0063C43.1668 35.7663 42.8647 36.4956 42.3378 37.0069L39.2778 39.975V46C39.2778 47.1044 40.1485 48 41.2222 48H45.1111C46.1848 48 47.0556 47.1044 47.0556 46V38C48.1293 38 49 37.1044 49 36V30C49 27.7937 47.2561 26 45.1111 26Z" fill="#651FFF"/>
</g>
<defs>
<clipPath id="clip0_160_129">
<rect width="35" height="32" fill="white" transform="translate(14 16)"/>
</clipPath>
</defs>
</svg>
