<svg width="18" height="18" viewBox="0 0 18 18" fill="none" xmlns="http://www.w3.org/2000/svg">
<g clip-path="url(#clip0_1_710)">
<path d="M3.70547 8.66953C3.26637 8.23008 3.26637 7.51816 3.70547 7.07871C4.14492 6.63926 4.85719 6.63926 5.29629 7.07871L7.875 9.66094V1.125C7.875 0.503789 8.37879 0 9 0C9.62121 0 10.125 0.503789 10.125 1.125V9.66094L12.7048 7.08117C13.1439 6.64172 13.8561 6.64172 14.2956 7.08117C14.7347 7.52063 14.7347 8.23254 14.2956 8.67199L9.79559 13.172C9.57656 13.391 9.28828 13.5 9 13.5C8.71172 13.5 8.42414 13.3901 8.20477 13.1704L3.70547 8.66953Z" fill="#651FFF"/>
<path opacity="0.4" d="M16.875 12.375H12.1816L10.5908 13.9658C10.1672 14.3895 9.60117 14.625 9 14.625C8.39883 14.625 7.83422 14.391 7.40918 13.9658L5.81836 12.375H1.125C0.503789 12.375 0 12.8788 0 13.5V16.875C0 17.4962 0.503789 18 1.125 18H16.875C17.4962 18 18 17.4962 18 16.875V13.5C18 12.8777 17.4973 12.375 16.875 12.375ZM15.1875 16.0312C14.7234 16.0312 14.3438 15.6516 14.3438 15.1875C14.3438 14.7234 14.7234 14.3438 15.1875 14.3438C15.6516 14.3438 16.0312 14.7234 16.0312 15.1875C16.0312 15.6516 15.6516 16.0312 15.1875 16.0312Z" fill="#651FFF"/>
</g>
<defs>
<clipPath id="clip0_1_710">
<rect width="18" height="18" fill="white"/>
</clipPath>
</defs>
</svg>
