<svg width="36" height="36" viewBox="0 0 36 36" fill="none" xmlns="http://www.w3.org/2000/svg">
<circle cx="18" cy="18" r="18" fill="#651FFF"/>
<g clip-path="url(#clip0_1_540)">
<path d="M26.7781 15.5156L22.0625 19.8344C21.65 20.2125 21 19.8781 21 19.3188V16.9719C17 17 14.8344 17.8813 16.0937 21.8875C16.2335 22.3319 15.6937 22.6763 15.3144 22.4019C14.1 21.525 13 19.8406 13 18.1438C13 13.9406 16.5375 13.0509 21 13V10.6825C21 10.095 21.6503 9.78844 22.0631 10.1663L26.7787 14.485C27.075 14.7563 27.075 15.2438 26.7781 15.5156Z" fill="white"/>
<path opacity="0.4" d="M22 22C21.4478 22 21 22.4478 21 23V23.9719L11 23.9718V14H12C12.5522 14 13 13.5525 13 13C13 12.4475 12.5531 12 12 12H11C9.89531 12 9 12.8953 9 14V23.9719C9 25.0763 9.89531 25.9719 11 25.9719L21 25.9718C22.1047 25.9718 23 25.0762 23 23.9718V23C23 22.4469 22.5531 22 22 22Z" fill="white"/>
</g>
<defs>
<clipPath id="clip0_1_540">
<rect width="18" height="16" fill="white" transform="translate(9 10)"/>
</clipPath>
</defs>
</svg>
