<svg width="66" height="25" viewBox="0 0 66 25" fill="none" xmlns="http://www.w3.org/2000/svg">
<g clip-path="url(#clip0_70_82)">
<rect y="0.446533" width="65.625" height="24.1071" rx="4" fill="#E2E8F0"/>
<path d="M0 4.44654C0 2.2374 1.79086 0.446533 4 0.446533H24.7642V24.5537H4C1.79086 24.5537 0 22.7628 0 20.5537V4.44654Z" fill="#2050E0"/>
<path d="M12.3821 4.0625L12.6629 4.94721H13.5717L12.8365 5.49397L13.1173 6.37868L12.3821 5.83157L11.647 6.37868L11.9279 5.49397L11.1924 4.94721H12.1012L12.3821 4.0625Z" fill="#F8D12E"/>
<path d="M12.3821 18.6213L12.6629 19.5063H13.5717L12.8365 20.053L13.1173 20.9375L12.3821 20.3909L11.647 20.9375L11.9279 20.053L11.1924 19.5063H12.1012L12.3821 18.6213Z" fill="#F8D12E"/>
<path d="M16.121 5.38599L16.4016 6.27068H17.3106L16.5752 6.81766L16.8561 7.70216L16.121 7.15518L15.3856 7.70216L15.6665 6.81766L14.9313 6.27068H15.8403L16.121 5.38599Z" fill="#F8D12E"/>
<path d="M19.1438 14.9106L19.4244 15.7956H20.3333L19.598 16.3424L19.879 17.2268L19.1438 16.6803L18.4084 17.2268L18.6893 16.3424L17.954 15.7956H18.8629L19.1438 14.9106Z" fill="#F8D12E"/>
<path d="M19.8599 11.342L20.1406 12.2267H21.0495L20.3143 12.7734L20.5951 13.6582L19.8599 13.1117L19.1247 13.6582L19.4057 12.7734L18.6702 12.2267H19.5789L19.8599 11.342Z" fill="#F8D12E"/>
<path d="M4.90442 11.342L5.18512 12.2267H6.0939L5.35857 12.7734L5.63961 13.6582L4.90442 13.1117L4.16904 13.6582L4.44993 12.7734L3.7146 12.2267H4.62353L4.90442 11.342Z" fill="#F8D12E"/>
<path d="M5.52353 14.9106L5.80423 15.7956H6.71301L5.97787 16.3424L6.25852 17.2268L5.52353 16.6803L4.7882 17.2268L5.06904 16.3424L4.33371 15.7956H5.24269L5.52353 14.9106Z" fill="#F8D12E"/>
<path d="M19.1438 7.67847L19.4244 8.56347H20.3333L19.598 9.11019L19.879 9.99464L19.1438 9.44812L18.4084 9.99464L18.6893 9.11019L17.954 8.56347H18.8629L19.1438 7.67847Z" fill="#F8D12E"/>
<path d="M5.83307 7.67847L6.11377 8.56347H7.02255L6.28741 9.11019L6.56806 9.99464L5.83307 9.44812L5.09774 9.99464L5.37858 9.11019L4.64325 8.56347H5.55223L5.83307 7.67847Z" fill="#F8D12E"/>
<path d="M16.8008 17.9595L17.0815 18.844H17.9904L17.2549 19.3911L17.536 20.2756L16.8008 19.729L16.0654 20.2756L16.3464 19.3911L15.6111 18.844H16.52L16.8008 17.9595Z" fill="#F8D12E"/>
<path d="M8.64317 5.38599L8.92381 6.27068H9.83279L9.09746 6.81766L9.3785 7.70216L8.64317 7.15518L7.90798 7.70216L8.18882 6.81766L7.45349 6.27068H8.36228L8.64317 5.38599Z" fill="#F8D12E"/>
<path d="M7.96326 17.9595L8.24408 18.8445H9.15298L8.41771 19.391L8.69853 20.2756L7.96326 19.7293L7.22813 20.2756L7.50895 19.391L6.77368 18.8445H7.68239L7.96326 17.9595Z" fill="#F8D12E"/>
<path fill-rule="evenodd" clip-rule="evenodd" d="M29.0979 9.84569C29.0979 11.5477 30.4371 12.6154 32.0823 12.6154C33.1239 12.6154 33.9258 12.206 34.521 11.5718V9.47638H31.8591V10.6244H33.1239V11.074C32.9007 11.2506 32.5122 11.3951 32.0823 11.3951C31.1812 11.3951 30.5446 10.7208 30.5446 9.84569C30.5446 8.9706 31.1812 8.29623 32.0823 8.29623C32.6031 8.29623 33.0247 8.57722 33.2479 8.93046L34.4384 8.32031C34.0333 7.65396 33.2893 7.07593 32.0823 7.07593C30.4371 7.07593 29.0979 8.14369 29.0979 9.84569ZM35.356 12.5191V7.16424H37.6707C39.4068 7.16424 40.6551 8.1758 40.6551 9.83766C40.6551 11.4995 39.4068 12.5191 37.679 12.5191H35.356ZM36.7779 11.3149H37.6707C38.638 11.3149 39.2001 10.6325 39.2001 9.83766C39.2001 9.01074 38.6876 8.36848 37.679 8.36848H36.7779V11.3149ZM41.3661 12.5191V7.16424H44.1272C45.3673 7.16424 46.0452 7.9751 46.0452 8.94652C46.0452 9.90991 45.3673 10.7047 44.1272 10.7047H42.788V12.5191H41.3661ZM44.5985 8.93849C44.5985 8.56919 44.3174 8.32834 43.9371 8.32834H42.788V9.53258H43.9371C44.3174 9.53258 44.5985 9.29976 44.5985 8.93849ZM49.757 12.5191L48.8311 10.7047H48.1036V12.5191H46.6817V7.16424H49.4429C50.6664 7.16424 51.3608 7.95101 51.3608 8.94652C51.3608 9.8778 50.7739 10.3756 50.2613 10.5522L51.3856 12.5191H49.757ZM49.9141 8.93046C49.9141 8.56116 49.6 8.32834 49.228 8.32834H48.1036V9.53258H49.228C49.6 9.53258 49.9141 9.29976 49.9141 8.93046Z" fill="#2B3945"/>
<path fill-rule="evenodd" clip-rule="evenodd" d="M14.0625 11.9797H14.3278C14.6208 11.9797 14.8585 12.219 14.8585 12.5139V14.6507C14.8585 14.9456 14.6208 15.1849 14.3278 15.1849H10.4363C10.1434 15.1849 9.90567 14.9456 9.90567 14.6507V12.5139C9.90567 12.219 10.1434 11.9797 10.4363 11.9797H10.7017V11.1784C10.7017 10.2458 11.4556 9.48682 12.3821 9.48682C13.3085 9.48682 14.0625 10.2458 14.0625 11.1784V11.9797ZM11.5861 11.1784V11.9797H13.1781V11.1784C13.1781 10.7366 12.821 10.3771 12.3821 10.3771C11.9432 10.3771 11.5861 10.7366 11.5861 11.1784Z" fill="white"/>
<path d="M32.2812 16.4251C32.2549 16.3423 32.2187 16.2661 32.1727 16.1965C32.1267 16.127 32.0675 16.0669 31.9952 16.0161C31.9229 15.9652 31.8374 15.9265 31.7388 15.8997C31.6434 15.8703 31.5317 15.8556 31.4035 15.8556C31.2161 15.8556 31.0533 15.8864 30.9153 15.9479C30.7805 16.0094 30.6703 16.0923 30.5849 16.1965C30.4994 16.2981 30.4353 16.4144 30.3926 16.5455C30.3531 16.6765 30.3334 16.8102 30.3334 16.9465C30.3334 17.0829 30.3531 17.2166 30.3926 17.3476C30.4353 17.4786 30.4994 17.5963 30.5849 17.7005C30.6703 17.8021 30.7805 17.8837 30.9153 17.9452C31.0533 18.0067 31.2161 18.0374 31.4035 18.0374C31.5415 18.0374 31.6632 18.0187 31.7684 17.9813C31.8736 17.9412 31.964 17.8877 32.0396 17.8209C32.1152 17.7513 32.1744 17.6711 32.2171 17.5802C32.2598 17.4893 32.2878 17.3917 32.3009 17.2874H32.9025C32.8894 17.4586 32.8434 17.615 32.7645 17.7567C32.6888 17.8984 32.5853 18.0214 32.4538 18.1257C32.3223 18.2273 32.1678 18.3062 31.9903 18.3623C31.8127 18.4185 31.6171 18.4465 31.4035 18.4465C31.1405 18.4465 30.9038 18.4078 30.6934 18.3302C30.4862 18.25 30.3104 18.1417 30.1657 18.0054C30.0211 17.869 29.9093 17.7099 29.8304 17.5281C29.7548 17.3463 29.717 17.1524 29.717 16.9465C29.717 16.7433 29.7548 16.5508 29.8304 16.369C29.9093 16.1872 30.0211 16.0281 30.1657 15.8917C30.3104 15.7554 30.4862 15.6471 30.6934 15.5669C30.9038 15.4866 31.1405 15.4465 31.4035 15.4465C31.6007 15.4465 31.7864 15.4693 31.9607 15.5147C32.1349 15.5575 32.2878 15.6217 32.4193 15.7072C32.5541 15.7901 32.6625 15.8917 32.7447 16.012C32.8269 16.1324 32.8779 16.2701 32.8976 16.4251H32.2812Z" fill="#2B3945"/>
<path d="M35.0855 15.8556C34.8981 15.8556 34.7354 15.8864 34.5973 15.9479C34.4625 16.0094 34.3524 16.0923 34.2669 16.1965C34.1814 16.2981 34.1173 16.4144 34.0746 16.5455C34.0351 16.6765 34.0154 16.8102 34.0154 16.9465C34.0154 17.0829 34.0351 17.2166 34.0746 17.3476C34.1173 17.4786 34.1814 17.5963 34.2669 17.7005C34.3524 17.8021 34.4625 17.8837 34.5973 17.9452C34.7354 18.0067 34.8981 18.0374 35.0855 18.0374C35.2729 18.0374 35.4339 18.0067 35.5687 17.9452C35.7068 17.8837 35.8186 17.8021 35.9041 17.7005C35.9895 17.5963 36.052 17.4786 36.0914 17.3476C36.1342 17.2166 36.1555 17.0829 36.1555 16.9465C36.1555 16.8102 36.1342 16.6765 36.0914 16.5455C36.052 16.4144 35.9895 16.2981 35.9041 16.1965C35.8186 16.0923 35.7068 16.0094 35.5687 15.9479C35.4339 15.8864 35.2729 15.8556 35.0855 15.8556ZM35.0855 15.4465C35.3485 15.4465 35.5835 15.4866 35.7906 15.5669C36.001 15.6471 36.1786 15.7554 36.3232 15.8917C36.4679 16.0281 36.578 16.1872 36.6536 16.369C36.7325 16.5508 36.7719 16.7433 36.7719 16.9465C36.7719 17.1524 36.7325 17.3463 36.6536 17.5281C36.578 17.7099 36.4679 17.869 36.3232 18.0054C36.1786 18.1417 36.001 18.25 35.7906 18.3302C35.5835 18.4078 35.3485 18.4465 35.0855 18.4465C34.8225 18.4465 34.5858 18.4078 34.3754 18.3302C34.1683 18.25 33.9924 18.1417 33.8477 18.0054C33.7031 17.869 33.5913 17.7099 33.5124 17.5281C33.4368 17.3463 33.399 17.1524 33.399 16.9465C33.399 16.7433 33.4368 16.5508 33.5124 16.369C33.5913 16.1872 33.7031 16.0281 33.8477 15.8917C33.9924 15.7554 34.1683 15.6471 34.3754 15.5669C34.5858 15.4866 34.8225 15.4465 35.0855 15.4465Z" fill="#2B3945"/>
<path d="M37.4464 15.5147H38.3143L39.2857 17.7567H39.2956L40.2424 15.5147H41.1004V18.3784H40.5136V16.1685H40.5037L39.5273 18.3784H39.0194L38.043 16.1685H38.0332V18.3784H37.4464V15.5147Z" fill="#2B3945"/>
<path d="M41.9617 15.5147H43.5151C43.7649 15.5147 43.9687 15.5441 44.1265 15.603C44.2843 15.6618 44.406 15.7353 44.4914 15.8235C44.5769 15.9118 44.6344 16.008 44.664 16.1123C44.6969 16.2166 44.7133 16.3128 44.7133 16.4011C44.7133 16.4893 44.6969 16.5856 44.664 16.6898C44.6344 16.7915 44.5769 16.8864 44.4914 16.9746C44.406 17.0628 44.2843 17.1364 44.1265 17.1952C43.9687 17.2513 43.7649 17.2794 43.5151 17.2794H42.5781V18.3784H41.9617V15.5147ZM42.5781 16.8703H43.4805C43.5496 16.8703 43.6203 16.8623 43.6926 16.8463C43.7649 16.8302 43.8306 16.8048 43.8898 16.7701C43.9523 16.7326 44.0016 16.6845 44.0378 16.6257C44.0772 16.5642 44.0969 16.488 44.0969 16.3971C44.0969 16.3035 44.0805 16.2259 44.0476 16.1644C44.0147 16.103 43.9704 16.0548 43.9145 16.0201C43.8586 15.9826 43.7945 15.9572 43.7222 15.9439C43.6498 15.9305 43.5726 15.9238 43.4904 15.9238H42.5781V16.8703Z" fill="#2B3945"/>
<path d="M45.3741 15.5147H45.9905V17.9452H47.7805V18.3784H45.3741V15.5147Z" fill="#2B3945"/>
<path d="M48.3289 15.5147H48.9453V18.3784H48.3289V15.5147Z" fill="#2B3945"/>
<path d="M50.7665 15.5147H51.4224L52.7785 18.3784H52.1177L51.7873 17.6203H50.3819L50.0515 18.3784H49.4154L50.7665 15.5147ZM50.5496 17.2393H51.6246L51.0969 16.008H51.0821L50.5496 17.2393Z" fill="#2B3945"/>
<path d="M53.2124 15.5147H53.8633L55.4709 17.6243H55.4807V15.5147H56.0675V18.3784H55.4166L53.814 16.2727H53.7992V18.3784H53.2124V15.5147Z" fill="#2B3945"/>
<path d="M56.5837 15.5147H59.434V15.9479H58.3146V18.3784H57.6982V15.9479H56.5837V15.5147Z" fill="#2B3945"/>
</g>
<defs>
<clipPath id="clip0_70_82">
<rect width="65.625" height="24.1071" fill="white" transform="translate(0 0.446533)"/>
</clipPath>
</defs>
</svg>
