<svg width="56" height="56" viewBox="0 0 56 56" fill="none" xmlns="http://www.w3.org/2000/svg">
<g clip-path="url(#clip0_1_726)">
<path d="M28 54.5762C42.6778 54.5762 54.5764 42.6776 54.5764 28C54.5764 13.3223 42.6778 1.42374 28 1.42374C13.3224 1.42374 1.4238 13.3223 1.4238 28C1.4238 42.6776 13.3224 54.5762 28 54.5762Z" fill="white"/>
<path d="M28 0C12.536 0 0 12.536 0 28C0 43.4641 12.536 56 28 56C43.4641 56 56 43.4641 56 28C56 12.536 43.4641 0 28 0ZM28 2.84746C41.8913 2.84746 53.1526 14.1086 53.1526 28C53.1526 41.8913 41.8913 53.1526 28 53.1526C14.1086 53.1526 2.84746 41.8913 2.84746 28C2.84746 14.1086 14.1086 2.84746 28 2.84746Z" fill="#4000BF"/>
<path d="M28.3162 8.06781C39.3246 8.06781 48.2486 16.9918 48.2486 28C48.2486 39.0082 39.3246 47.9322 28.3162 47.9322C17.308 47.9322 8.38406 39.0082 8.38406 28C8.38406 25.3097 8.91707 22.7439 9.88327 20.4022C11.294 22.3234 13.5691 23.5706 16.1355 23.5706C20.4166 23.5706 23.8868 20.1002 23.8868 15.8192C23.8868 13.2529 22.6397 10.9778 20.7184 9.56703C23.0601 8.60083 25.626 8.06781 28.3162 8.06781Z" fill="url(#paint0_linear_1_726)"/>
</g>
<defs>
<linearGradient id="paint0_linear_1_726" x1="28.3162" y1="47.9322" x2="28.3162" y2="8.06781" gradientUnits="userSpaceOnUse">
<stop stop-color="#7400E1"/>
<stop offset="1" stop-color="#4000BF"/>
</linearGradient>
<clipPath id="clip0_1_726">
<rect width="56" height="56" fill="white"/>
</clipPath>
</defs>
</svg>
