<svg width="64" height="64" viewBox="0 0 64 64" fill="none" xmlns="http://www.w3.org/2000/svg">
<circle cx="32" cy="32" r="32" fill="#ECECFE"/>
<path d="M14 24C14 22.3431 15.3431 21 17 21H23C24.6562 21 26 22.3431 26 24V30C26 31.6562 24.6562 33 23 33H17C15.3431 33 14 31.6562 14 30V24ZM28 40C28 38.3438 29.3438 37 31 37H37C38.6562 37 40 38.3438 40 40V46C40 47.6562 38.6562 49 37 49H31C29.3438 49 28 47.6562 28 46V40ZM47 21C48.6562 21 50 22.3431 50 24V30C50 31.6562 48.6562 33 47 33H41C39.3438 33 38 31.6562 38 30V24C38 22.3431 39.3438 21 41 21H47Z" fill="#651FFF"/>
<path opacity="0.4" d="M25.9812 30.2563L31 37C29.45 37 28.175 38.175 28.0188 39.6875L23 33C24.55 33 25.825 31.825 25.9812 30.2563ZM26 25H38V29H26V25Z" fill="#651FFF"/>
</svg>
